<?xml version="1.0" encoding="UTF-8"?><svg xmlns="http://www.w3.org/2000/svg" xmlns:xlink="http://www.w3.org/1999/xlink" fill-opacity="1" color-rendering="auto" color-interpolation="auto" text-rendering="auto" stroke="black" stroke-linecap="square" width="427" stroke-miterlimit="10" shape-rendering="auto" stroke-opacity="1" fill="black" stroke-dasharray="none" font-weight="normal" stroke-width="1" height="235" font-family="'Dialog'" font-style="normal" stroke-linejoin="miter" font-size="12px" stroke-dashoffset="0" image-rendering="auto">
  <!--Generated by ySVG 2.6-->
  <defs id="genericDefs"/>
  <g>
    <defs id="defs1">
      <clipPath clipPathUnits="userSpaceOnUse" id="clipPath1">
        <path d="M0 0 L427 0 L427 235 L0 235 L0 0 Z"/>
      </clipPath>
      <clipPath clipPathUnits="userSpaceOnUse" id="clipPath2">
        <path d="M924 561 L1351 561 L1351 796 L924 796 L924 561 Z"/>
      </clipPath>
    </defs>
    <g fill="white" text-rendering="geometricPrecision" shape-rendering="geometricPrecision" transform="translate(-924,-561)" stroke="white">
      <rect x="924" width="427" height="235" y="561" clip-path="url(#clipPath2)" stroke="none"/>
    </g>
    <g text-rendering="geometricPrecision" stroke-miterlimit="1.45" shape-rendering="geometricPrecision" transform="matrix(1,0,0,1,-924,-561)" stroke-linecap="butt">
      <rect fill="none" x="1087.396" width="248.0135" height="142.7247" y="576.5507" clip-path="url(#clipPath2)"/>
      <text x="1131.8574" xml:space="preserve" y="606.2753" clip-path="url(#clipPath2)" font-family="sans-serif" stroke="none">Java Runtime Environment</text>
      <rect fill="none" x="1110.0944" width="90.2008" height="60.048" y="629.132" clip-path="url(#clipPath2)"/>
      <text x="1117.8413" xml:space="preserve" y="656.5193" clip-path="url(#clipPath2)" font-family="sans-serif" stroke="none">Java Laufzeit-</text>
      <text x="1121.1724" xml:space="preserve" y="671.2205" clip-path="url(#clipPath2)" font-family="sans-serif" stroke="none">Bibiliotheken</text>
      <rect fill="none" x="1230.2952" width="90.2008" height="60.048" y="629.132" clip-path="url(#clipPath2)"/>
      <text x="1244.048" xml:space="preserve" y="656.5193" clip-path="url(#clipPath2)" font-family="sans-serif" stroke="none">Java Virtual</text>
      <text x="1252.7169" xml:space="preserve" y="671.2205" clip-path="url(#clipPath2)" font-family="sans-serif" stroke="none">Machine</text>
      <rect fill="none" x="1215.3817" width="120.0279" height="30" y="750.352" clip-path="url(#clipPath2)"/>
      <text x="1234.3829" xml:space="preserve" y="770.0659" clip-path="url(#clipPath2)" font-family="sans-serif" stroke="none">Betriebssystem</text>
      <rect fill="none" x="939.1611" width="120.0279" height="60.048" y="720.304" clip-path="url(#clipPath2)"/>
      <text x="949.4817" xml:space="preserve" y="747.6913" clip-path="url(#clipPath2)" font-family="sans-serif" stroke="none">Java Development</text>
      <text x="992.1731" xml:space="preserve" y="762.3925" clip-path="url(#clipPath2)" font-family="sans-serif" stroke="none">Kit</text>
      <rect fill="none" x="939.0877" width="120.0279" height="60.048" y="629.132" clip-path="url(#clipPath2)"/>
      <text x="953.0674" xml:space="preserve" y="663.8699" clip-path="url(#clipPath2)" font-family="sans-serif" stroke="none">Java Anwendung</text>
      <path fill="none" d="M1275.3956 689.18 L1275.3956 742.352" clip-path="url(#clipPath2)"/>
      <path d="M1275.3956 750.352 L1280.3956 738.352 L1275.3956 741.352 L1270.3956 738.352 Z" clip-path="url(#clipPath2)" stroke="none"/>
      <path fill="none" d="M999.175 720.304 L999.175 704.742 L999.1016 704.742 L999.1016 697.18" clip-path="url(#clipPath2)"/>
      <path d="M999.1016 689.18 L994.1016 701.18 L999.1016 698.18 L1004.1016 701.18 Z" clip-path="url(#clipPath2)" stroke="none"/>
      <path fill="none" d="M1059.1392 658.7534 L1079.3988 658.7534" clip-path="url(#clipPath2)"/>
      <path d="M1087.3988 658.7534 L1075.3988 653.7534 L1078.3988 658.7534 L1075.3988 663.7534 Z" clip-path="url(#clipPath2)" stroke="none"/>
    </g>
  </g>
</svg>
