<?xml version="1.0" encoding="UTF-8"?><svg xmlns="http://www.w3.org/2000/svg" xmlns:xlink="http://www.w3.org/1999/xlink" fill-opacity="1" color-rendering="auto" color-interpolation="auto" text-rendering="auto" stroke="black" stroke-linecap="square" width="400" stroke-miterlimit="10" shape-rendering="auto" stroke-opacity="1" fill="black" stroke-dasharray="none" font-weight="normal" stroke-width="1" height="416" font-family="'Dialog'" font-style="normal" stroke-linejoin="miter" font-size="12px" stroke-dashoffset="0" image-rendering="auto">
  <!--Generated by ySVG 2.6-->
  <defs id="genericDefs"/>
  <g>
    <defs id="defs1">
      <linearGradient x1="1426.6978" gradientUnits="userSpaceOnUse" x2="1556.61" y1="676.4395" y2="716.4395" id="linearGradient1" spreadMethod="reflect">
        <stop stop-opacity="1" stop-color="rgb(232,238,247)" offset="0%"/>
        <stop stop-opacity="1" stop-color="rgb(183,201,227)" offset="100%"/>
      </linearGradient>
      <linearGradient x1="1426.6978" gradientUnits="userSpaceOnUse" x2="1556.61" y1="737.7782" y2="792.9781" id="linearGradient2" spreadMethod="reflect">
        <stop stop-opacity="1" stop-color="rgb(232,238,247)" offset="0%"/>
        <stop stop-opacity="1" stop-color="rgb(183,201,227)" offset="100%"/>
      </linearGradient>
      <linearGradient x1="1426.6978" gradientUnits="userSpaceOnUse" x2="1556.61" y1="880.2" y2="935.4" id="linearGradient3" spreadMethod="reflect">
        <stop stop-opacity="1" stop-color="rgb(232,238,247)" offset="0%"/>
        <stop stop-opacity="1" stop-color="rgb(183,201,227)" offset="100%"/>
      </linearGradient>
      <linearGradient x1="1441.0043" gradientUnits="userSpaceOnUse" x2="1542.3035" y1="846.5387" y2="868.1387" id="linearGradient4" spreadMethod="reflect">
        <stop stop-opacity="1" stop-color="rgb(232,238,247)" offset="0%"/>
        <stop stop-opacity="1" stop-color="rgb(183,201,227)" offset="100%"/>
      </linearGradient>
      <linearGradient x1="1426.6978" gradientUnits="userSpaceOnUse" x2="1556.61" y1="1019.0784" y2="1050.1655" id="linearGradient5" spreadMethod="reflect">
        <stop stop-opacity="1" stop-color="rgb(232,238,247)" offset="0%"/>
        <stop stop-opacity="1" stop-color="rgb(183,201,227)" offset="100%"/>
      </linearGradient>
      <linearGradient x1="1411.6539" gradientUnits="userSpaceOnUse" x2="1571.6539" y1="811.3585" y2="828.1584" id="linearGradient6" spreadMethod="reflect">
        <stop stop-opacity="1" stop-color="rgb(232,238,247)" offset="0%"/>
        <stop stop-opacity="1" stop-color="rgb(183,201,227)" offset="100%"/>
      </linearGradient>
      <linearGradient x1="1411.6539" gradientUnits="userSpaceOnUse" x2="1571.6539" y1="960.6047" y2="977.4047" id="linearGradient7" spreadMethod="reflect">
        <stop stop-opacity="1" stop-color="rgb(232,238,247)" offset="0%"/>
        <stop stop-opacity="1" stop-color="rgb(183,201,227)" offset="100%"/>
      </linearGradient>
      <linearGradient x1="1441.0043" gradientUnits="userSpaceOnUse" x2="1542.3035" y1="987.4415" y2="1009.0416" id="linearGradient8" spreadMethod="reflect">
        <stop stop-opacity="1" stop-color="rgb(232,238,247)" offset="0%"/>
        <stop stop-opacity="1" stop-color="rgb(183,201,227)" offset="100%"/>
      </linearGradient>
      <clipPath clipPathUnits="userSpaceOnUse" id="clipPath1">
        <path d="M0 0 L400 0 L400 416 L0 416 L0 0 Z"/>
      </clipPath>
      <clipPath clipPathUnits="userSpaceOnUse" id="clipPath2">
        <path d="M1280 656 L1680 656 L1680 1072 L1280 1072 L1280 656 Z"/>
      </clipPath>
    </defs>
    <g fill="white" text-rendering="geometricPrecision" shape-rendering="geometricPrecision" transform="translate(-1280,-656)" stroke="white">
      <rect x="1280" width="400" height="416" y="656" clip-path="url(#clipPath2)" stroke="none"/>
    </g>
    <g fill="white" text-rendering="geometricPrecision" shape-rendering="geometricPrecision" transform="matrix(1,0,0,1,-1280,-656)" stroke="white">
      <rect x="1295.7931" y="671.3086" clip-path="url(#clipPath2)" width="368.432" rx="4" ry="4" height="385.328" stroke="none"/>
    </g>
    <g text-rendering="geometricPrecision" stroke-miterlimit="1.45" shape-rendering="geometricPrecision" transform="matrix(1,0,0,1,-1280,-656)" stroke-linecap="butt">
      <rect x="1295.7931" y="671.3086" clip-path="url(#clipPath2)" fill="none" width="368.432" rx="4" ry="4" height="385.328"/>
      <text x="1301.7931" xml:space="preserve" y="689.373" clip-path="url(#clipPath2)" font-family="sans-serif" stroke="none">Äußere for-Schleife</text>
    </g>
    <g fill="white" text-rendering="geometricPrecision" shape-rendering="geometricPrecision" transform="matrix(1,0,0,1,-1280,-656)" stroke="white">
      <rect x="1405.9211" y="842.9547" clip-path="url(#clipPath2)" width="226.048" rx="4" ry="4" height="169.776" stroke="none"/>
    </g>
    <g text-rendering="geometricPrecision" stroke-miterlimit="1.45" shape-rendering="geometricPrecision" transform="matrix(1,0,0,1,-1280,-656)" stroke-linecap="butt">
      <rect x="1405.9211" y="842.9547" clip-path="url(#clipPath2)" fill="none" width="226.048" rx="4" ry="4" height="169.776"/>
      <text x="1301.8704" xml:space="preserve" y="838.318" clip-path="url(#clipPath2)" font-family="sans-serif" stroke="none">Innere for-Schleife</text>
    </g>
    <g fill="url(#linearGradient1)" text-rendering="geometricPrecision" shape-rendering="geometricPrecision" transform="matrix(1,0,0,1,-1280,-656)" stroke="url(#linearGradient1)">
      <path d="M1436.6978 676.4395 L1546.61 676.4395 L1556.61 686.4395 L1556.61 716.4395 L1426.6978 716.4395 L1426.6978 686.4395 Z" stroke="none" clip-path="url(#clipPath2)"/>
    </g>
    <g text-rendering="geometricPrecision" stroke-miterlimit="1.45" shape-rendering="geometricPrecision" transform="matrix(1,0,0,1,-1280,-656)" stroke-linecap="butt">
      <path fill="none" d="M1436.6978 676.4395 L1546.61 676.4395 L1556.61 686.4395 L1556.61 716.4395 L1426.6978 716.4395 L1426.6978 686.4395 Z" clip-path="url(#clipPath2)"/>
      <text x="1432.3014" xml:space="preserve" y="693.8027" clip-path="url(#clipPath2)" font-family="sans-serif" stroke="none">for (root, subs, files) in</text>
      <text x="1428.3082" xml:space="preserve" y="708.5039" clip-path="url(#clipPath2)" font-family="sans-serif" stroke="none"> SOURCE_CBM_PFAD</text>
    </g>
    <g fill="url(#linearGradient2)" text-rendering="geometricPrecision" shape-rendering="geometricPrecision" transform="matrix(1,0,0,1,-1280,-656)" stroke="url(#linearGradient2)">
      <path d="M1491.6539 737.7782 L1556.61 765.3782 L1491.6539 792.9781 L1426.6978 765.3782 Z" stroke="none" clip-path="url(#clipPath2)"/>
    </g>
    <g text-rendering="geometricPrecision" stroke-miterlimit="1.45" shape-rendering="geometricPrecision" transform="matrix(1,0,0,1,-1280,-656)" stroke-linecap="butt">
      <path fill="none" d="M1491.6539 737.7782 L1556.61 765.3782 L1491.6539 792.9781 L1426.6978 765.3782 Z" clip-path="url(#clipPath2)"/>
      <text x="1474.4772" xml:space="preserve" y="762.7415" clip-path="url(#clipPath2)" font-family="sans-serif" stroke="none">root = </text>
      <text x="1466.6549" xml:space="preserve" y="777.4426" clip-path="url(#clipPath2)" font-family="sans-serif" stroke="none">CBM-File</text>
    </g>
    <g fill="url(#linearGradient3)" text-rendering="geometricPrecision" shape-rendering="geometricPrecision" transform="matrix(1,0,0,1,-1280,-656)" stroke="url(#linearGradient3)">
      <path d="M1491.6539 880.2 L1556.61 907.8 L1491.6539 935.4 L1426.6978 907.8 Z" stroke="none" clip-path="url(#clipPath2)"/>
    </g>
    <g text-rendering="geometricPrecision" stroke-miterlimit="1.45" shape-rendering="geometricPrecision" transform="matrix(1,0,0,1,-1280,-656)" stroke-linecap="butt">
      <path fill="none" d="M1491.6539 880.2 L1556.61 907.8 L1491.6539 935.4 L1426.6978 907.8 Z" clip-path="url(#clipPath2)"/>
      <text x="1469.8073" xml:space="preserve" y="905.1633" clip-path="url(#clipPath2)" font-family="sans-serif" stroke="none">name = </text>
      <text x="1466.986" xml:space="preserve" y="919.8644" clip-path="url(#clipPath2)" font-family="sans-serif" stroke="none">ECO-File</text>
    </g>
    <g fill="url(#linearGradient4)" text-rendering="geometricPrecision" shape-rendering="geometricPrecision" transform="matrix(1,0,0,1,-1280,-656)" stroke="url(#linearGradient4)">
      <path d="M1451.0043 846.5387 L1532.3035 846.5387 L1542.3035 856.5387 L1542.3035 868.1387 L1441.0043 868.1387 L1441.0043 856.5387 Z" stroke="none" clip-path="url(#clipPath2)"/>
    </g>
    <g text-rendering="geometricPrecision" stroke-miterlimit="1.45" shape-rendering="geometricPrecision" transform="matrix(1,0,0,1,-1280,-656)" stroke-linecap="butt">
      <path fill="none" d="M1451.0043 846.5387 L1532.3035 846.5387 L1542.3035 856.5387 L1542.3035 868.1387 L1441.0043 868.1387 L1441.0043 856.5387 Z" clip-path="url(#clipPath2)"/>
      <text x="1449.3024" xml:space="preserve" y="862.0526" clip-path="url(#clipPath2)" font-family="sans-serif" stroke="none">for name in files</text>
    </g>
    <g fill="url(#linearGradient5)" text-rendering="geometricPrecision" shape-rendering="geometricPrecision" transform="matrix(1,0,0,1,-1280,-656)" stroke="url(#linearGradient5)">
      <path d="M1426.6978 1019.0784 L1556.61 1019.0784 L1556.61 1040.1655 L1546.61 1050.1655 L1436.6978 1050.1655 L1426.6978 1040.1655 Z" stroke="none" clip-path="url(#clipPath2)"/>
    </g>
    <g text-rendering="geometricPrecision" stroke-miterlimit="1.45" shape-rendering="geometricPrecision" transform="matrix(1,0,0,1,-1280,-656)" stroke-linecap="butt">
      <path fill="none" d="M1426.6978 1019.0784 L1556.61 1019.0784 L1556.61 1040.1655 L1546.61 1050.1655 L1436.6978 1050.1655 L1426.6978 1040.1655 Z" clip-path="url(#clipPath2)"/>
      <text x="1472.9742" xml:space="preserve" y="1039.3358" clip-path="url(#clipPath2)" font-family="sans-serif" stroke="none">end for</text>
    </g>
    <g fill="url(#linearGradient6)" text-rendering="geometricPrecision" shape-rendering="geometricPrecision" transform="matrix(1,0,0,1,-1280,-656)" stroke="url(#linearGradient6)">
      <path d="M1411.6539 811.3585 L1571.6539 811.3585 L1571.6539 828.1584 L1411.6539 828.1584 Z" stroke="none" clip-path="url(#clipPath2)"/>
    </g>
    <g text-rendering="geometricPrecision" stroke-miterlimit="1.45" shape-rendering="geometricPrecision" transform="matrix(1,0,0,1,-1280,-656)" stroke-linecap="butt">
      <path fill="none" d="M1411.6539 811.3585 L1571.6539 811.3585 L1571.6539 828.1584 L1411.6539 828.1584 Z" clip-path="url(#clipPath2)"/>
      <text x="1416.3053" xml:space="preserve" y="824.4723" clip-path="url(#clipPath2)" font-family="sans-serif" stroke="none">writeCbmDictionaryRecord()</text>
    </g>
    <g fill="url(#linearGradient7)" text-rendering="geometricPrecision" shape-rendering="geometricPrecision" transform="matrix(1,0,0,1,-1280,-656)" stroke="url(#linearGradient7)">
      <path d="M1411.6539 960.6047 L1571.6539 960.6047 L1571.6539 977.4047 L1411.6539 977.4047 Z" stroke="none" clip-path="url(#clipPath2)"/>
    </g>
    <g text-rendering="geometricPrecision" stroke-miterlimit="1.45" shape-rendering="geometricPrecision" transform="matrix(1,0,0,1,-1280,-656)" stroke-linecap="butt">
      <path fill="none" d="M1411.6539 960.6047 L1571.6539 960.6047 L1571.6539 977.4047 L1411.6539 977.4047 Z" clip-path="url(#clipPath2)"/>
      <text x="1422.9733" xml:space="preserve" y="973.7186" clip-path="url(#clipPath2)" font-family="sans-serif" stroke="none">writeCbmEcoFileRecord()</text>
    </g>
    <g fill="url(#linearGradient8)" text-rendering="geometricPrecision" shape-rendering="geometricPrecision" transform="matrix(1,0,0,1,-1280,-656)" stroke="url(#linearGradient8)">
      <path d="M1441.0043 987.4415 L1542.3035 987.4415 L1542.3035 999.0416 L1532.3035 1009.0416 L1451.0043 1009.0416 L1441.0043 999.0416 Z" stroke="none" clip-path="url(#clipPath2)"/>
    </g>
    <g text-rendering="geometricPrecision" stroke-miterlimit="1.45" shape-rendering="geometricPrecision" transform="matrix(1,0,0,1,-1280,-656)" stroke-linecap="butt">
      <path fill="none" d="M1441.0043 987.4415 L1542.3035 987.4415 L1542.3035 999.0416 L1532.3035 1009.0416 L1451.0043 1009.0416 L1441.0043 999.0416 Z" clip-path="url(#clipPath2)"/>
      <text x="1472.9742" xml:space="preserve" y="1002.9554" clip-path="url(#clipPath2)" font-family="sans-serif" stroke="none">end for</text>
    </g>
    <g text-rendering="geometricPrecision" stroke-miterlimit="1.45" shape-rendering="geometricPrecision" transform="matrix(1,0,0,1,-1280,-656)" stroke-linecap="butt">
      <path fill="none" d="M1556.6183 765.3782 L1616.3452 765.3782 L1616.3452 696.4395 L1564.61 696.4395" clip-path="url(#clipPath2)"/>
      <path d="M1556.61 696.4395 L1568.61 701.4395 L1565.61 696.4395 L1568.61 691.4395 Z" clip-path="url(#clipPath2)" stroke="none"/>
      <text x="1557.2838" xml:space="preserve" y="777.3739" clip-path="url(#clipPath2)" font-family="sans-serif" stroke="none">Nein</text>
      <path fill="none" d="M1556.6366 907.8 L1616.0901 907.8 L1616.0901 857.5961 L1550.3417 857.5961" clip-path="url(#clipPath2)"/>
      <path d="M1542.3417 857.5961 L1554.3417 862.5961 L1551.3417 857.5961 L1554.3417 852.5961 Z" clip-path="url(#clipPath2)" stroke="none"/>
      <text x="1575.1293" xml:space="preserve" y="920.8608" clip-path="url(#clipPath2)" font-family="sans-serif" stroke="none">Nein</text>
      <path fill="none" d="M1491.6539 792.9666 L1491.6539 803.3598" clip-path="url(#clipPath2)"/>
      <path d="M1491.6539 811.3598 L1496.6539 799.3598 L1491.6539 802.3598 L1486.6539 799.3598 Z" clip-path="url(#clipPath2)" stroke="none"/>
      <text x="1501.7512" xml:space="preserve" y="803.5464" clip-path="url(#clipPath2)" font-family="sans-serif" stroke="none">Ja</text>
      <path fill="none" d="M1491.6539 935.3826 L1491.6539 952.5972" clip-path="url(#clipPath2)"/>
      <path d="M1491.6539 960.5972 L1496.6539 948.5972 L1491.6539 951.5972 L1486.6539 948.5972 Z" clip-path="url(#clipPath2)" stroke="none"/>
      <text x="1505.5479" xml:space="preserve" y="952.7968" clip-path="url(#clipPath2)" font-family="sans-serif" stroke="none">Ja</text>
    </g>
  </g>
</svg>
